<svg width="196" height="104" viewBox="0 0 196 104" fill="none" xmlns="http://www.w3.org/2000/svg">
<path d="M7.18292 6.78282C5.01687 8.94886 3.8 11.8867 3.8 14.9499C3.8 18.0132 5.01687 20.9509 7.18292 23.117C9.34896 25.283 12.2868 26.4999 15.35 26.4999H180.65C183.713 26.4999 186.651 25.283 188.817 23.117C190.983 20.9509 192.2 18.0131 192.2 14.9499C192.2 11.8867 190.983 8.94887 188.817 6.78282C186.651 4.61677 183.713 3.3999 180.65 3.3999H15.35C12.2868 3.3999 9.34896 4.61677 7.18292 6.78282ZM7.18292 80.8828C5.01688 83.0489 3.8 85.9866 3.8 89.0499C3.8 92.1131 5.01687 95.0509 7.18292 97.217C9.34896 99.383 12.2867 100.6 15.35 100.6H180.65C183.713 100.6 186.651 99.383 188.817 97.217C190.983 95.0509 192.2 92.1131 192.2 89.0499C192.2 85.9866 190.983 83.0489 188.817 80.8828C186.651 78.7168 183.713 77.4999 180.65 77.4999H15.35C12.2867 77.4999 9.34896 78.7168 7.18292 80.8828Z" fill="#202020" stroke="#202020" stroke-width="6"/>
</svg>
