<svg width="157" height="157" viewBox="0 0 157 157" fill="none" xmlns="http://www.w3.org/2000/svg">
<path d="M134.922 28.2109H109.164V18.3984C109.164 17.7238 108.612 17.1719 107.938 17.1719H99.3516C98.677 17.1719 98.125 17.7238 98.125 18.3984V28.2109H58.875V18.3984C58.875 17.7238 58.323 17.1719 57.6484 17.1719H49.0625C48.3879 17.1719 47.8359 17.7238 47.8359 18.3984V28.2109H22.0781C19.3644 28.2109 17.1719 30.4034 17.1719 33.1172V134.922C17.1719 137.636 19.3644 139.828 22.0781 139.828H134.922C137.636 139.828 139.828 137.636 139.828 134.922V33.1172C139.828 30.4034 137.636 28.2109 134.922 28.2109ZM128.789 128.789H28.2109V70.5273H128.789V128.789ZM28.2109 60.1016V39.25H47.8359V46.6094C47.8359 47.284 48.3879 47.8359 49.0625 47.8359H57.6484C58.323 47.8359 58.875 47.284 58.875 46.6094V39.25H98.125V46.6094C98.125 47.284 98.677 47.8359 99.3516 47.8359H107.938C108.612 47.8359 109.164 47.284 109.164 46.6094V39.25H128.789V60.1016H28.2109Z" fill="#202020"/>
</svg>
