<svg width="159" height="128" viewBox="0 0 159 128" fill="none" xmlns="http://www.w3.org/2000/svg">
<path d="M17.3077 49.2308L65.2308 100.385L42.1538 49.2308H17.3077ZM79.7692 108.615L106.615 49.2308H52.9231L79.7692 108.615ZM42.3846 39.3846L58.0769 9.84615H37.9231L15.7692 39.3846H42.3846ZM94.3077 100.385L142.231 49.2308H117.385L94.3077 100.385ZM53.5385 39.3846H106L90.3077 9.84615H69.2308L53.5385 39.3846ZM117.154 39.3846H143.769L121.615 9.84615H101.462L117.154 39.3846ZM128 2L157.538 41.3846C158.256 42.3077 158.59 43.3718 158.538 44.5769C158.487 45.7821 158.051 46.8205 157.231 47.6923L83.3846 126.462C82.4615 127.487 81.2564 128 79.7692 128C78.2821 128 77.0769 127.487 76.1538 126.462L2.30769 47.6923C1.48718 46.8205 1.05128 45.7821 1 44.5769C0.948719 43.3718 1.28205 42.3077 2 41.3846L31.5385 2C32.4615 0.666667 33.7692 0 35.4615 0H124.077C125.769 0 127.077 0.666667 128 2Z" fill="black"/>
</svg>
