<svg width="170" height="128" viewBox="0 0 170 128" fill="none" xmlns="http://www.w3.org/2000/svg">
<path d="M159.167 0H10.6111C7.79687 0 5.09789 1.11795 3.10792 3.10792C1.11795 5.09789 0 7.79687 0 10.6111V116.722C0 119.536 1.11795 122.235 3.10792 124.225C5.09789 126.215 7.79687 127.333 10.6111 127.333H159.167C161.981 127.333 164.68 126.215 166.67 124.225C168.66 122.235 169.778 119.536 169.778 116.722V10.6111C169.778 7.79687 168.66 5.09789 166.67 3.10792C164.68 1.11795 161.981 0 159.167 0V0ZM150.996 116.722H19.4183L56.5572 78.31L48.9172 70.9353L10.6111 110.568V18.6756L76.5592 84.3053C78.5473 86.2816 81.2367 87.3909 84.04 87.3909C86.8433 87.3909 89.5327 86.2816 91.5208 84.3053L159.167 17.0308V109.878L120.118 70.8292L112.637 78.31L150.996 116.722ZM17.5614 10.6111H150.572L84.04 76.7714L17.5614 10.6111Z" fill="#202020"/>
</svg>
