<?xml version="1.0" encoding="utf-8"?>
<!-- Generator: Adobe Illustrator 25.4.1, SVG Export Plug-In . SVG Version: 6.00 Build 0)  -->
<svg version="1.1" id="Layer_1" xmlns="http://www.w3.org/2000/svg" xmlns:xlink="http://www.w3.org/1999/xlink" x="0px" y="0px"
	 viewBox="0 0 128 128" style="enable-background:new 0 0 128 128;" xml:space="preserve">
<style type="text/css">
	.st0{fill:#202020;}
</style>
<path class="st0" d="M37.5,26.4L18.7,45.3c-17.8,17.7-17.8,46.3,0,64c17.8,17.7,46.3,17.8,64,0l32-32c5.3-5.2,5.3-13.7,0-18.9
	c-0.5-0.6-1.2-1.2-2-1.7l2-2.1c5.3-5.2,5.3-13.7,0-18.9c-0.7-0.9-1.8-1.6-2.7-2.2c2-4.9,1.1-10.8-2.9-14.8
	c-4.6-4.6-11.8-5.1-17.1-1.5c-1.1-1.7-2.5-3.1-4.2-4.1c-1.7-1-3.6-1.7-5.6-1.9c-2-0.2-4,0-5.9,0.7c-1.9,0.7-3.6,1.7-5,3.1L58,28.5
	c-0.5-0.7-1.1-1.4-1.7-2.1c-2.5-2.4-5.9-3.8-9.4-3.8C43.4,22.6,40,24,37.5,26.4z M45,34c1.1-1.1,2.7-1.1,3.8,0
	c1.1,1.1,1.1,2.7,0,3.8l-17,17c3,3,4.7,7.1,4.7,11.3s-1.7,8.3-4.7,11.3l7.5,7.5c3.7-3.7,6.2-8.3,7.2-13.4c1.1-5.1,0.6-10.4-1.3-15.2
	l33.6-33.6c1.1-1.1,2.7-1.1,3.7,0c1,1.1,1.1,2.7,0,3.8L58.2,51l7.5,7.5l32.1-32.1c1.1-1.1,2.7-1.1,3.8,0c1.1,1.1,1.1,2.7,0,3.8
	L69.5,62.3l7.5,7.5l26.4-26.4c1.1-1.1,2.7-1.1,3.8,0c1.1,1.1,1.1,2.7,0,3.8L77,77.3l7.5,7.6L103.4,66c1.1-1.1,2.7-1.1,3.8,0
	c1.1,1.1,1.1,2.7,0,3.8l-32,32.1c-13.5,13.5-35.5,13.5-49,0c-13.5-13.5-13.5-35.5,0-49L45,34z M122.7,90.7c0,17.7-14.3,32-32,32v-8
	c13.3,0,24-10.7,24-24H122.7z M5.3,37.3c0-17.7,14.3-32,32-32v8c-13.3,0-24,10.7-24,24H5.3z"/>
</svg>
