<svg width="128" height="128" viewBox="0 0 128 128" fill="none" xmlns="http://www.w3.org/2000/svg">
<g clip-path="url(#clip0_101_171)">
<path fill-rule="evenodd" clip-rule="evenodd" d="M22.832 126.832C22.2726 127.393 21.5592 127.775 20.7823 127.93C20.0055 128.085 19.2001 128.006 18.4683 127.702C17.7365 127.399 17.1113 126.885 16.6718 126.226C16.2324 125.567 15.9986 124.792 16 124V112H4C3.20784 112.001 2.43309 111.768 1.77398 111.328C1.11486 110.889 0.601068 110.263 0.297728 109.532C-0.00561258 108.8 -0.0848374 107.995 0.0700969 107.218C0.225031 106.441 0.607147 105.727 1.168 105.168L13.168 93.168C13.5402 92.7968 13.9818 92.5026 14.4678 92.3021C14.9537 92.1017 15.4744 91.9991 16 92H30.344L34.584 87.76C28.416 81.344 23.96 75.12 20.952 69.2C14.568 56.6 14.752 45.232 19.248 36.464C27.408 20.52 49.44 14.472 64 25.864C74 18.024 87.552 18.44 97.696 24.648L106.336 16L97.176 6.832C96.6156 6.27304 96.2337 5.56041 96.0785 4.78429C95.9233 4.00817 96.0019 3.20345 96.3042 2.47199C96.6065 1.74054 97.1191 1.11522 97.777 0.675178C98.4349 0.235141 99.2085 0.000168119 100 0L124 0C125.061 0 126.078 0.421427 126.828 1.17157C127.579 1.92172 128 2.93913 128 4V28C128.001 28.7922 127.768 29.5669 127.328 30.226C126.889 30.8851 126.263 31.3989 125.532 31.7023C124.8 32.0056 123.995 32.0848 123.218 31.9299C122.441 31.775 121.727 31.3929 121.168 30.832L112 21.656L103.952 29.704C105.84 31.688 107.472 33.952 108.752 36.464C113.248 45.232 113.432 56.6 107.048 69.2C100.704 81.704 87.888 95.504 66.208 109.84L64 111.296L61.792 109.84C54.2163 104.905 47.0348 99.3897 40.312 93.344L36 97.664V112C36.0009 112.526 35.8983 113.046 35.6979 113.532C35.4974 114.018 35.2032 114.46 34.832 114.832L22.832 126.832ZM45.976 87.68C51.6503 92.7612 57.673 97.4393 64 101.68C83.648 88.352 94.616 76.024 99.912 65.584C105.344 54.864 104.768 46.224 101.632 40.104C95.096 27.344 76.936 23.672 66.864 34.016L64 36.96L61.136 34.016C51.064 23.672 32.896 27.344 26.368 40.104C23.232 46.232 22.656 54.864 28.088 65.584C30.672 70.672 34.608 76.224 40.24 82.104L55.168 67.168C55.9191 66.4169 56.9378 65.9949 58 65.9949C59.0622 65.9949 60.0809 66.4169 60.832 67.168C61.5831 67.9191 62.0051 68.9378 62.0051 70C62.0051 71.0622 61.5831 72.0809 60.832 72.832L45.976 87.68Z" fill="#202020"/>
</g>
<defs>
<clipPath id="clip0_101_171">
<rect width="128" height="128" fill="white"/>
</clipPath>
</defs>
</svg>
