<svg width="128" height="128" viewBox="0 0 128 128" fill="none" xmlns="http://www.w3.org/2000/svg">
<path d="M37.4933 26.4L18.6666 45.3334C0.906647 62.9867 0.906647 91.68 18.6666 109.333C36.4266 126.987 65.0133 127.093 82.6666 109.333L114.667 77.3334C120 72.16 120 63.68 114.667 58.4534C114.133 57.8134 113.44 57.2267 112.693 56.7467L114.667 54.6667C120 49.4934 120 41.0134 114.667 35.7867C113.92 34.9334 112.907 34.1867 112 33.6C114.027 28.6934 113.12 22.8267 109.12 18.8267C104.48 14.1867 97.28 13.7067 92.0533 17.3334C90.9681 15.6618 89.5242 14.2528 87.8266 13.2088C86.129 12.1647 84.2202 11.5117 82.2388 11.2972C80.2574 11.0828 78.2531 11.3121 76.3714 11.9688C74.4897 12.6254 72.7778 13.6927 71.36 15.0934L57.9733 28.48C57.4933 27.7334 56.9067 27.04 56.2666 26.4C53.7498 23.9628 50.3836 22.6 46.88 22.6C43.3764 22.6 40.0102 23.9628 37.4933 26.4ZM45.0133 33.9734C46.08 32.9067 47.7333 32.9067 48.8 33.9734C49.8666 35.04 49.8666 36.6934 48.8 37.76L31.84 54.72C34.8363 57.7201 36.5192 61.7867 36.5192 66.0267C36.5192 70.2667 34.8363 74.3334 31.84 77.3334L39.36 84.8534C43.0257 81.1842 45.5429 76.5265 46.6037 71.4496C47.6646 66.3727 47.2231 61.0967 45.3333 56.2667L78.9333 22.6667C80 21.6 81.6533 21.6 82.6666 22.6667C83.68 23.7334 83.7867 25.3867 82.6666 26.4534L58.1866 50.9867L65.7066 58.5067L97.76 26.4534C98.8267 25.3867 100.48 25.3867 101.547 26.4534C102.613 27.52 102.613 29.1734 101.547 30.24L69.4933 62.2934L77.0133 69.8134L103.413 43.4134C104.48 42.3467 106.133 42.3467 107.2 43.4134C108.267 44.48 108.267 46.1334 107.2 47.2L77.0133 77.3334L84.5333 84.9067L103.413 66.0267C104.48 64.96 106.133 64.96 107.2 66.0267C108.267 67.0934 108.267 68.7467 107.2 69.8134L75.2 101.867C61.6533 115.413 39.7333 115.413 26.1866 101.867C12.64 88.32 12.64 66.4 26.1866 52.8534L45.0133 33.9734ZM122.667 90.6667C122.667 108.32 108.32 122.667 90.6666 122.667V114.667C104 114.667 114.667 104 114.667 90.6667H122.667ZM5.33331 37.3334C5.33331 19.68 19.68 5.33337 37.3333 5.33337V13.3334C24 13.3334 13.3333 24 13.3333 37.3334H5.33331Z" fill="#202020"/>
</svg>
