<svg width="175" height="175" viewBox="0 0 175 175" fill="none" xmlns="http://www.w3.org/2000/svg">
<path d="M76.2889 40.3501L48.8868 8.72149C45.7278 5.07671 39.9363 5.09291 36.267 8.77009L13.7329 31.3434C7.02618 38.0579 5.10649 48.0284 8.98637 56.0227C32.1654 104.012 70.8704 142.769 118.83 166.014C126.816 169.894 136.779 167.974 143.486 161.26L166.231 138.476C169.916 134.79 169.924 128.967 166.247 125.808L134.495 98.5532C131.174 95.7022 126.015 96.0748 122.685 99.4118L111.637 110.476C111.071 111.068 110.327 111.459 109.518 111.588C108.709 111.717 107.88 111.576 107.158 111.188C89.0985 100.789 74.118 85.7902 63.7421 67.7184C63.3535 66.9955 63.2128 66.1651 63.3415 65.3546C63.4703 64.544 63.8614 63.7981 64.4549 63.2312L75.4708 52.2078C78.808 48.8546 79.1725 43.679 76.2889 40.3501Z" stroke="#202020" stroke-width="12" stroke-linecap="round" stroke-linejoin="round"/>
</svg>
