<svg width="162" height="162" viewBox="0 0 162 162" fill="none" xmlns="http://www.w3.org/2000/svg">
<path d="M6.43543 19.4396L6.43564 19.4398L68.0078 81L6.43564 142.56L6.43543 142.56C5.58157 143.414 4.90425 144.428 4.44214 145.544C3.98003 146.659 3.74219 147.855 3.74219 149.062C3.74219 150.27 3.98003 151.466 4.44214 152.581C4.90425 153.697 5.58157 154.711 6.43543 155.565C7.2893 156.418 8.30298 157.096 9.41861 157.558C10.5342 158.02 11.73 158.258 12.9375 158.258C14.145 158.258 15.3408 158.02 16.4564 157.558C17.572 157.096 18.5857 156.418 19.4396 155.565L19.4398 155.564L81 93.9922L142.56 155.564L142.56 155.565C143.414 156.418 144.428 157.096 145.544 157.558C146.659 158.02 147.855 158.258 149.062 158.258C150.27 158.258 151.466 158.02 152.581 157.558C153.697 157.096 154.711 156.418 155.565 155.565C156.418 154.711 157.096 153.697 157.558 152.581C158.02 151.466 158.258 150.27 158.258 149.062C158.258 147.855 158.02 146.659 157.558 145.544C157.096 144.428 156.418 143.414 155.565 142.56L155.564 142.56L93.9922 81L155.564 19.4398L155.565 19.4396C156.418 18.5857 157.096 17.572 157.558 16.4564C158.02 15.3408 158.258 14.145 158.258 12.9375C158.258 11.73 158.02 10.5342 157.558 9.41861C157.096 8.30298 156.418 7.2893 155.565 6.43543C154.711 5.58157 153.697 4.90425 152.581 4.44214C151.466 3.98003 150.27 3.74219 149.062 3.74219C147.855 3.74219 146.659 3.98003 145.544 4.44214C144.428 4.90425 143.414 5.58157 142.56 6.43543L142.56 6.43564L81 68.0078L19.4398 6.43564L19.4396 6.43543C18.5857 5.58156 17.572 4.90425 16.4564 4.44214C15.3408 3.98003 14.1451 3.74219 12.9375 3.74219C11.73 3.74219 10.5342 3.98003 9.41861 4.44214C8.30299 4.90425 7.2893 5.58156 6.43543 6.43543C5.58156 7.2893 4.90425 8.30299 4.44214 9.41861C3.98003 10.5342 3.74219 11.73 3.74219 12.9375C3.74219 14.1451 3.98003 15.3408 4.44214 16.4564C4.90425 17.572 5.58156 18.5857 6.43543 19.4396Z" fill="#202020" stroke="#202020" stroke-width="6"/>
</svg>
